<?xml version="1.0" encoding="UTF-8"?>
<svg xmlns="http://www.w3.org/2000/svg" xmlns:xlink="http://www.w3.org/1999/xlink" width="512" height="512" viewBox="0 0 59 58" version="1.1"><!-- Generator: Sketch 51.3 (57544) - http://www.bohemiancoding.com/sketch --><title>027 - Secure</title><desc>Created with Sketch.</desc><defs/><g id="Page-1" stroke="none" stroke-width="1" fill="none" fill-rule="evenodd"><g id="027---Secure" transform="translate(0.000000, -1.000000)" fill-rule="nonzero"><path d="M27,8.34 C23.9060285,6.55369474 20.0941042,6.55367053 17.00011,8.33993649 C13.9061158,10.1262024 12.0000908,13.4273895 12,17 L12,26 L5.99999966,26 L6,17 C5.99867913,10.6175738 9.79065053,4.84485102 15.6486771,2.31129799 C21.5067037,-0.222255047 28.3101277,0.968037807 32.96,5.34 L27,8.34 Z" id="Shape" fill="#95A5A5"/><path d="M27,23 L5,23 C2.790861,23 1,24.790861 1,27 L1,55 C1,57.209139 2.790861,59 5,59 L39,59 C41.209139,59 43,57.209139 43,55 L43,41 L27,23 Z" id="Shape" fill="#F0C419"/><path d="M40,23 L7.429,23 C5.38305376,23.1685144 3.85387538,24.9523329 4,27 L4,55 C3.85387538,57.0476671 5.38305376,58.8314856 7.429,59 L36.571,59 C38.6169462,58.8314856 40.1461246,57.0476671 40,55 L40,23 Z" id="Shape" fill="#F3D55B"/><path d="M24.43,41.37 L25.893,49.411 C25.9194076,49.5569862 25.8796226,49.7071611 25.784401,49.8209248 C25.6891794,49.9346885 25.5483551,50.0002922 25.4,50 L18.6,50 C18.4518197,49.9999955 18.3112743,49.934265 18.2162787,49.8205406 C18.1212831,49.7068161 18.0816239,49.556814 18.108,49.411 L19.57,41.37 C17.5791274,40.2628951 16.5882499,37.9500562 17.1601152,35.7450108 C17.7319805,33.5399654 19.7220064,32.000206 22,32.000206 C24.2779936,32.000206 26.2680195,33.5399654 26.8398848,35.7450108 C27.4117501,37.9500562 26.4208726,40.2628951 24.43,41.37 Z" id="Shape" fill="#35495E"/><path d="M19.8,49 C19.651785,48.999753 19.5113181,48.9337619 19.4165091,48.8198365 C19.3217,48.7059112 19.2823211,48.5557943 19.309,48.41 L20.685,40.848 L20.064,40.499 C18.1624155,39.4392739 17.4525176,37.056679 18.464,35.129 C18.9617639,34.1604621 19.8410684,33.4435354 20.89,33.151 C22.8528647,32.5677878 24.9392081,33.5611176 25.7239056,35.4524727 C26.508603,37.3438278 25.7382268,39.5223717 23.939,40.5 L23.318,40.849 L24.694,48.411 C24.7204397,48.5571588 24.6805291,48.7075069 24.5850812,48.8213101 C24.4896334,48.9351133 24.3485298,49.0005898 24.2,49 L19.8,49 Z" id="Shape" fill="#2C3E50"/><path d="M8,30 L1,30 C0.44771525,30 6.76353751e-17,29.5522847 0,29 C-6.76353751e-17,28.4477153 0.44771525,28 1,28 L8,28 C8.55228475,28 9,28.4477153 9,29 C9,29.5522847 8.55228475,30 8,30 Z" id="Shape" fill="#F29C1F"/><path d="M8,34 L1,34 C0.44771525,34 6.76353751e-17,33.5522847 0,33 C-6.76353751e-17,32.4477153 0.44771525,32 1,32 L8,32 C8.55228475,32 9,32.4477153 9,33 C9,33.5522847 8.55228475,34 8,34 Z" id="Shape" fill="#F29C1F"/><path d="M8,38 L1,38 C0.44771525,38 6.76353751e-17,37.5522847 0,37 C-6.76353751e-17,36.4477153 0.44771525,36 1,36 L8,36 C8.55228475,36 9,36.4477153 9,37 C9,37.5522847 8.55228475,38 8,38 Z" id="Shape" fill="#F29C1F"/><path d="M8,42 L1,42 C0.44771525,42 6.76353751e-17,41.5522847 0,41 C-6.76353751e-17,40.4477153 0.44771525,40 1,40 L8,40 C8.55228475,40 9,40.4477153 9,41 C9,41.5522847 8.55228475,42 8,42 Z" id="Shape" fill="#F29C1F"/><path d="M8,46 L1,46 C0.44771525,46 6.76353751e-17,45.5522847 0,45 C-6.76353751e-17,44.4477153 0.44771525,44 1,44 L8,44 C8.55228475,44 9,44.4477153 9,45 C9,45.5522847 8.55228475,46 8,46 Z" id="Shape" fill="#F29C1F"/><path d="M8,50 L1,50 C0.44771525,50 6.76353751e-17,49.5522847 0,49 C-6.76353751e-17,48.4477153 0.44771525,48 1,48 L8,48 C8.55228475,48 9,48.4477153 9,49 C9,49.5522847 8.55228475,50 8,50 Z" id="Shape" fill="#F29C1F"/><path d="M8,54 L1,54 C0.44771525,54 6.76353751e-17,53.5522847 0,53 C-6.76353751e-17,52.4477153 0.44771525,52 1,52 L8,52 C8.55228475,52 9,52.4477153 9,53 C9,53.5522847 8.55228475,54 8,54 Z" id="Shape" fill="#F29C1F"/><path d="M43,42 L36,42 C35.4477153,42 35,41.5522847 35,41 C35,40.4477153 35.4477153,40 36,40 L43,40 C43.5522847,40 44,40.4477153 44,41 C44,41.5522847 43.5522847,42 43,42 Z" id="Shape" fill="#F29C1F"/><path d="M43,46 L36,46 C35.4477153,46 35,45.5522847 35,45 C35,44.4477153 35.4477153,44 36,44 L43,44 C43.5522847,44 44,44.4477153 44,45 C44,45.5522847 43.5522847,46 43,46 Z" id="Shape" fill="#F29C1F"/><path d="M43,50 L36,50 C35.4477153,50 35,49.5522847 35,49 C35,48.4477153 35.4477153,48 36,48 L43,48 C43.5522847,48 44,48.4477153 44,49 C44,49.5522847 43.5522847,50 43,50 Z" id="Shape" fill="#F29C1F"/><path d="M43,54 L36,54 C35.4477153,54 35,53.5522847 35,53 C35,52.4477153 35.4477153,52 36,52 L43,52 C43.5522847,52 44,52.4477153 44,53 C44,53.5522847 43.5522847,54 43,54 Z" id="Shape" fill="#F29C1F"/><path d="M43.52,40.834 L54.578,32.962 C57.3450084,31.0045301 58.9928889,27.8283913 59,24.439 L59,8.24 C59.0002955,8.04091949 58.8824606,7.86063207 58.7,7.781 L43.2,1.086 C43.0724748,1.03034343 42.9275252,1.03034343 42.8,1.086 L27.3,7.781 C27.1175394,7.86063207 26.9997045,8.04091949 27,8.24 L27,24.44 C27.0072152,27.829127 28.6546296,31.0050856 31.421,32.963 L42.479,40.835 C42.7910117,41.0557399 43.2084129,41.055339 43.52,40.834 Z" id="Shape" fill="#894B9D"/><path d="M33.741,29.7 C32.0321666,28.4911625 31.0115128,26.5321477 31,24.439 L31,10.539 L43,5.357 L55,10.541 L55,24.441 C54.9881102,26.5337457 53.9670259,28.4921273 52.258,29.7 L43,36.294 L33.741,29.7 Z" id="Shape" fill="#B49ACA"/><path d="M40.714,27.143 C40.4976298,27.143 40.2870962,27.0728221 40.114,26.943 L35.543,23.515 C35.2571875,23.3006406 35.1074453,22.9500853 35.1501797,22.5953848 C35.1929141,22.2406842 35.4216328,21.9357259 35.7501797,21.7953848 C36.0787266,21.6550436 36.4571875,21.7006406 36.743,21.915 L40.543,24.762 L49.076,14.09 C49.4220579,13.6627006 50.0481792,13.5949554 50.4776245,13.9383466 C50.9070699,14.2817379 50.9787114,14.9074254 50.638,15.339 L41.5,26.767 C41.3092448,27.0058859 41.0196993,27.1443962 40.714,27.143 Z" id="Shape" fill="#3D324C"/></g></g></svg>
