<svg height="480pt" viewBox="0 0 480.002 480" width="480pt" xmlns="http://www.w3.org/2000/svg"><path d="m72.003906 152h-64v-16h60.6875l29.65625-29.65625c1.496094-1.503906 3.535156-2.34375 5.65625-2.34375h64v16h-60.691406l-29.65625 29.65625c-1.496094 1.503906-3.535156 2.34375-5.652344 2.34375zm0 0" fill="#699ce6"/><path d="m104.003906 88h-64v-16h60.6875l29.65625-29.65625c1.496094-1.503906 3.535156-2.34375 5.65625-2.34375h64v16h-60.691406l-29.65625 29.65625c-1.496094 1.503906-3.535156 2.34375-5.652344 2.34375zm0 0" fill="#abd176"/><path d="m344.003906 472h-16v-64c0-2.128906.839844-4.160156 2.34375-5.65625l29.65625-29.65625v-60.6875h16v64c0 2.128906-.84375 4.160156-2.347656 5.65625l-29.652344 29.65625zm0 0" fill="#dc6068"/><path d="m408.003906 440h-16v-64c0-2.128906.839844-4.160156 2.34375-5.65625l29.65625-29.65625v-60.6875h16v64c0 2.128906-.84375 4.160156-2.347656 5.65625l-29.652344 29.65625zm0 0" fill="#f8cf6a"/><path d="m34.347656 181.65625-32-32c-3.128906-3.128906-3.128906-8.183594 0-11.3125l32-32 11.308594 11.3125-26.34375 26.34375 26.34375 26.34375zm0 0" fill="#5789d6"/><path d="m66.347656 117.65625-32-32c-3.128906-3.128906-3.128906-8.183594 0-11.3125l32-32 11.308594 11.3125-26.34375 26.34375 26.34375 26.34375zm0 0" fill="#98be61"/><path d="m336.003906 480c-2.050781 0-4.097656-.78125-5.65625-2.34375l-32-32 11.308594-11.3125 26.347656 26.34375 26.34375-26.34375 11.308594 11.3125-32 32c-1.558594 1.5625-3.605469 2.34375-5.652344 2.34375zm0 0" fill="#ca5057"/><path d="m400.003906 448c-2.050781 0-4.097656-.78125-5.65625-2.34375l-32-32 11.308594-11.3125 26.347656 26.34375 26.34375-26.34375 11.308594 11.3125-32 32c-1.558594 1.5625-3.605469 2.34375-5.652344 2.34375zm0 0" fill="#eebc5a"/><path d="m25.101562 339.964844 112.007813-192.007813 13.820313 8.0625-112.007813 192.007813zm0 0" fill="#444a53"/><path d="m131.96875 441.070312 192.027344-111.960937 8.066406 13.828125-192.027344 111.964844zm0 0" fill="#444a53"/><path d="m160.003906 416v-32l-17.25 3.449219c-1.664062-8.351563-5.070312-16.023438-9.640625-22.855469l18.890625-12.59375-24-24-12.59375 18.890625c-6.832031-4.570313-14.503906-7.976563-22.855468-9.640625l3.449218-17.25h-32l3.445313 17.25c-8.351563 1.664062-16.109375 4.941406-22.941407 9.511719l-12.503906-18.761719-24 24 18.75 12.503906c-4.566406 6.832032-7.847656 14.601563-9.511718 22.945313l-17.23828175-3.449219v32l17.24609375-3.445312c1.664062 8.351562 5.070312 16.023437 9.640625 22.855468l-18.886719 12.589844 24 24 12.589844-18.886719c6.832031 4.566407 14.503906 7.976563 22.855469 9.640625l-3.445313 17.246094h32l-3.449218-17.246094c8.351562-1.664062 16.109374-4.945312 22.941406-9.511718l12.507812 18.757812 24-24-18.753906-12.503906c4.566406-6.832032 7.847656-14.597656 9.511719-22.941406zm0 0" fill="#666d77"/><path d="m112.003906 400c0 17.675781-14.328125 32-32 32-17.675781 0-32-14.324219-32-32 0-17.671875 14.324219-32 32-32 17.671875 0 32 14.328125 32 32zm0 0" fill="#f5f7fa"/><path d="m461.304688 147.402344c-4.328126-23.960938-14.023438-46.015625-27.734376-64.976563l14.433594-10.425781-40-40-10.425781 14.433594c-18.960937-13.710938-41.015625-23.410156-64.976563-27.738282l3.402344-18.695312h-64l3.398438 18.695312c-23.960938 4.328126-46.015625 13.992188-64.984375 27.722657l-10.414063-14.417969-40 40 14.414063 10.410156c-13.726563 18.976563-23.390625 41.023438-27.71875 64.984375l-18.695313-3.394531v64l18.695313-3.398438c4.328125 23.960938 14.023437 46.015626 27.734375 64.976563l-14.429688 10.421875 40 40 10.421875-14.429688c18.960938 13.710938 41.015625 23.40625 64.976563 27.734376l-3.398438 18.695312h64l-3.402344-18.695312c23.960938-4.328126 46.015626-13.992188 64.984376-27.71875l10.417968 14.414062 40-40-14.417968-10.40625c13.726562-18.976562 23.390624-41.023438 27.71875-64.984375l18.699218 3.390625v-64zm0 0" fill="#666d77"/><path d="m432.003906 176c0 70.695312-57.308594 128-128 128-70.695312 0-128-57.304688-128-128 0-70.691406 57.304688-128 128-128 70.691406 0 128 57.308594 128 128zm0 0" fill="#f5f7fa"/><path d="m232.003906 216h16v40h-16zm0 0" fill="#5789d6"/><path d="m232.003906 216h8v40h-8zm0 0" fill="#699ce6"/><path d="m232.003906 184h16v16h-16zm0 0" fill="#5789d6"/><path d="m232.003906 184h8v16h-8zm0 0" fill="#699ce6"/><path d="m264.003906 200h16v56h-16zm0 0" fill="#917dd6"/><path d="m264.003906 200h8v56h-8zm0 0" fill="#a795e6"/><path d="m264.003906 168h16v16h-16zm0 0" fill="#917dd6"/><path d="m264.003906 168h8v16h-8zm0 0" fill="#a795e6"/><path d="m296.003906 168h16v88h-16zm0 0" fill="#ca5057"/><path d="m296.003906 168h8v88h-8zm0 0" fill="#dc6068"/><path d="m296.003906 136h16v16h-16zm0 0" fill="#ca5057"/><path d="m296.003906 136h8v16h-8zm0 0" fill="#dc6068"/><path d="m328.003906 200h16v56h-16zm0 0" fill="#98be61"/><path d="m328.003906 200h8v56h-8zm0 0" fill="#abd176"/><path d="m328.003906 168h16v16h-16zm0 0" fill="#98be61"/><path d="m328.003906 168h8v16h-8zm0 0" fill="#abd176"/><path d="m360.003906 136h16v120h-16zm0 0" fill="#eebc5a"/><path d="m360.003906 136h8v120h-8zm0 0" fill="#f8cf6a"/><path d="m360.003906 104h16v16h-16zm0 0" fill="#eebc5a"/><path d="m360.003906 104h8v16h-8zm0 0" fill="#f8cf6a"/></svg>