<svg height="512pt" viewBox="0 0 512 512" width="512pt" xmlns="http://www.w3.org/2000/svg"><path d="m193.5 504.5h-156c-16.570312 0-30-13.429688-30-30v-376c0-16.570312 13.429688-30 30-30h156c16.570312 0 30 13.429688 30 30v376c0 16.570312-13.429688 30-30 30zm0 0" fill="#b5fcff"/><path d="m193.5 68.5h-30c16.570312 0 30 13.429688 30 30v376c0 16.570312-13.429688 30-30 30h30c16.570312 0 30-13.429688 30-30v-376c0-16.570312-13.429688-30-30-30zm0 0" fill="#71f6fc"/><path d="m7.5 428.5h216v30h-216zm0 0" fill="#3be3eb"/><path d="m193.5 428.5h30v30h-30zm0 0" fill="#2bc3d4"/><path d="m193.5 504.5h-156c-16.570312 0-30-13.429688-30-30v-16h216v16c0 16.570312-13.429688 30-30 30zm0 0" fill="#5793c9"/><path d="m193.5 458.5v16c0 16.570312-13.429688 30-30 30h30c16.570312 0 30-13.429688 30-30v-16zm0 0" fill="#4c87bd"/><path d="m37.5 68.5h156c16.570312 0 30 13.429688 30 30v16h-216v-16c0-16.570312 13.429688-30 30-30zm0 0" fill="#5793c9"/><path d="m474.5 504.5h-156c-16.570312 0-30-13.429688-30-30v-376c0-16.570312 13.429688-30 30-30h156c16.570312 0 30 13.429688 30 30v376c0 16.570312-13.429688 30-30 30zm0 0" fill="#b5fcff"/><path d="m474.5 68.5h-30c16.570312 0 30 13.429688 30 30v376c0 16.570312-13.429688 30-30 30h30c16.570312 0 30-13.429688 30-30v-376c0-16.570312-13.429688-30-30-30zm0 0" fill="#71f6fc"/><path d="m288.5 428.5h216v30h-216zm0 0" fill="#3be3eb"/><path d="m474.5 428.5h30v30h-30zm0 0" fill="#2bc3d4"/><path d="m474.5 504.5h-156c-16.570312 0-30-13.429688-30-30v-16h216v16c0 16.570312-13.429688 30-30 30zm0 0" fill="#5793c9"/><path d="m474.5 458.5v16c0 16.570312-13.429688 30-30 30h30c16.570312 0 30-13.429688 30-30v-16zm0 0" fill="#4c87bd"/><path d="m318.5 68.5h156c16.570312 0 30 13.429688 30 30v16h-216v-16c0-16.570312 13.429688-30 30-30zm0 0" fill="#5793c9"/><path d="m380.722656 326.191406h34v37.992188h-34zm0 0" fill="#d98868"/><path d="m338.722656 271.765625v-43.164063c0-30.628906 24.832032-55.460937 55.460938-55.460937h7.078125c30.628906 0 55.460937 24.832031 55.460937 55.460937v43.164063c0 32.457031-26.3125 58.769531-58.769531 58.769531h-.460937c-32.457032 0-58.769532-26.3125-58.769532-58.769531zm0 0" fill="#ebad88"/><path d="m401.261719 173.140625h-7.074219c-3.929688 0-7.765625.414063-11.464844 1.191406 25.132813 5.28125 44 27.570313 44 54.269531v43.164063c0 27.355469-18.691406 50.34375-44 56.894531 4.71875 1.222656 9.667969 1.875 14.769532 1.875h.460937c32.457031 0 58.769531-26.3125 58.769531-58.769531v-43.164063c0-30.628906-24.832031-55.460937-55.460937-55.460937zm0 0" fill="#e8916f"/><path d="m474.25 417.410156v11.089844h-153.054688v-11.089844c0-32.242187 22.640626-58.382812 50.5625-58.382812h51.929688c27.925781 0 50.5625 26.140625 50.5625 58.382812zm0 0" fill="#ffd659"/><path d="m423.6875 359.027344h-30c27.925781 0 50.5625 26.140625 50.5625 58.382812v11.089844h30v-11.089844c0-32.242187-22.636719-58.382812-50.5625-58.382812zm0 0" fill="#ffbd54"/><path d="m459.820312 243.914062c-1.640624 4.324219-7.109374 5.976563-10.78125 3.109376-10.710937-8.339844-13.003906-32.632813-13.003906-32.632813-17.929687-10.398437-20.910156-21.828125-20.910156-21.828125-10.363281 17.359375-55.71875 21.828125-55.71875 21.828125s-2.28125 24.292969-12.996094 32.632813c-3.671875 2.867187-9.136718 1.214843-10.78125-3.109376-5.050781-13.265624-1.988281-29.523437-1.988281-29.523437s1.824219-44.359375 41.34375-50.976563c41.917969-7.011718 49.203125 7.496094 49.203125 7.496094 39.332031 1.914063 37.613281 43.480469 37.613281 43.480469s3.0625 16.257813-1.980469 29.523437zm0 0" fill="#50536e"/><path d="m461.804688 214.390625s1.71875-41.566406-37.617188-43.480469c0 0-6.792969-13.507812-44.953125-8.144531 6.070313 1.28125 9.808594 3.320313 12.03125 5.035156 2.542969 1.964844 5.578125 3.195313 8.75 3.722657 27.898437 4.625 31.363281 31.535156 31.753906 40.1875 1.320313.894531 2.734375 1.792968 4.269531 2.679687 0 0 2.289063 24.292969 13.003907 32.632813 3.671875 2.867187 9.140625 1.214843 10.78125-3.109376 5.039062-13.265624 1.980469-29.523437 1.980469-29.523437zm0 0" fill="#484b63"/><path d="m312 329.578125v45.84375c0 1.097656-.894531 1.992187-2 1.992187h-65.613281c-1.105469 0-2 .890626-2 1.992188v25.097656c0 1.738282-2.078125 2.644532-3.359375 1.460938l-56.386719-52c-.855469-.789063-.855469-2.140625 0-2.929688l56.386719-52c1.28125-1.183594 3.359375-.277344 3.359375 1.460938v25.097656c0 1.101562.894531 1.992188 2 1.992188h65.613281c1.105469 0 2 .894531 2 1.992187zm0 0" fill="#ff4b26"/><path d="m310 327.585938h-30c1.105469 0 2 .894531 2 1.992187v45.84375c0 1.097656-.894531 1.992187-2 1.992187h30c1.105469 0 2-.894531 2-1.992187v-45.84375c0-1.097656-.894531-1.992187-2-1.992187zm0 0" fill="#eb4523"/><path d="m332.808594 282.964844h-6.441406c-9.742188 0-17.644532-7.898438-17.644532-17.644532v-24.710937c0-9.746094 7.902344-17.644531 17.644532-17.644531h6.441406c3.265625 0 5.914062 2.648437 5.914062 5.914062v48.171875c0 3.265625-2.648437 5.914063-5.914062 5.914063zm0 0" fill="#ffd659"/><path d="m462.636719 282.964844h6.441406c9.746094 0 17.644531-7.898438 17.644531-17.644532v-24.710937c0-9.746094-7.898437-17.644531-17.644531-17.644531h-6.441406c-3.265625 0-5.914063 2.648437-5.914063 5.914062v48.171875c0 3.265625 2.648438 5.914063 5.914063 5.914063zm0 0" fill="#ffd659"/><path d="m323.625 7.5h-135.25c-24.230469 0-43.875 19.628906-43.875 43.839844v71.867187c0 24.210938 19.644531 43.839844 43.875 43.839844h42.785156c1.839844 55.242187 54.753906 53.585937 69.964844 50.28125 1.21875-.261719 1.167969-1.933594-.042969-2.222656-48.0625-11.496094-29.722656-48.058594-29.722656-48.058594h52.261719c24.234375 0 43.878906-19.628906 43.878906-43.839844v-71.867187c0-24.210938-19.644531-43.839844-43.875-43.839844zm0 0" fill="#dcdfe8"/><path d="m323.625 7.5h-30c24.230469 0 43.875 19.628906 43.875 43.839844v71.867187c0 24.210938-19.644531 43.839844-43.875 43.839844h30c24.230469 0 43.875-19.628906 43.875-43.839844v-71.867187c0-24.210938-19.644531-43.839844-43.875-43.839844zm0 0" fill="#cbcdd9"/><path d="m474.5 61h-99.5v-9.660156c0-28.308594-23.046875-51.339844-51.375-51.339844h-135.25c-28.328125 0-51.375 23.03125-51.375 51.339844v9.660156h-99.5c-20.679688 0-37.5 16.820312-37.5 37.5v376c0 20.679688 16.820312 37.5 37.5 37.5h156c20.679688 0 37.5-16.820312 37.5-37.5v-65.734375l2.941406 2.714844c1.789063 1.648437 4.101563 2.515625 6.445313 2.515625 1.289062 0 2.585937-.261719 3.8125-.796875 3.453125-1.515625 5.6875-4.925781 5.6875-8.695313v-19.589844h31.113281v89.585938c0 20.679688 16.820312 37.5 37.5 37.5h156c20.679688 0 37.5-16.820312 37.5-37.5v-376c0-20.679688-16.820312-37.5-37.5-37.5zm0 15c12.40625 0 22.5 10.09375 22.5 22.5v8.5h-122v-31zm-50.8125 290.527344c23.746094 0 43.0625 22.828125 43.0625 50.882812v3.589844h-138.054688v-3.589844c0-28.054687 19.320313-50.882812 43.0625-50.882812zm-35.46875-15v-14.148438c3.03125.425782 6.125.660156 9.273438.660156h.457031c3.148437 0 6.238281-.234374 9.273437-.660156v14.148438zm9.730469-28.488282h-.460938c-28.21875 0-51.179687-22.917968-51.265625-51.113281v-16.539062c1.707032-.496094 3.339844-1.3125 4.796875-2.449219 9.542969-7.429688 13.5-23.054688 15.019531-31.8125 11.03125-1.574219 33.839844-5.921875 47.484376-16.144531 3.191406 4.1875 8.082031 9.132812 15.523437 13.925781 1.203125 8.046875 4.964844 25.917969 15.363281 34.015625 1.460938 1.144531 3.09375 1.957031 4.808594 2.457031v16.390625c0 28.269531-22.996094 51.269531-51.269531 51.269531zm-52.019531-153.589843c-2.515626 2.347656-4.828126 4.976562-6.921876 7.875.964844-2.148438 2.050782-4.25 3.257813-6.292969 1.242187-.484375 2.46875-1.007812 3.664063-1.582031zm71.65625 5.097656c1.019531 2.730469 3.242187 3.710937 6.238281 3.855469 13.214843.640625 21.992187 6.359375 26.839843 17.484375 3.910157 8.972656 3.644532 18.128906 3.644532 18.191406-.023438.5625.015625 1.136719.117187 1.6875.003907.015625.15625.863281.328125 2.28125-3.34375 2.441406-5.53125 6.382813-5.53125 10.832031v6.238282c-3.21875-6.425782-5.152344-15.59375-5.714844-21.433594-.230468-2.410156-1.609374-4.566406-3.703124-5.78125-13.949219-8.089844-17.101563-16.332032-17.433594-17.308594-.667969-2.980469-3.035156-5.097656-6.054688-5.597656-3.042968-.507813-6.042968 1.070312-7.625 3.71875-6.125 10.25-33.933594 16.609375-50.015625 18.210937-3.574219.351563-6.398437 3.1875-6.734375 6.757813-.46875 4.992187-2.355468 14.664062-5.71875 21.425781v-6.230469c0-4.453125-2.1875-8.394531-5.535156-10.832031.167969-1.417969.320312-2.261719.320312-2.269531.066407-.339844.105469-.710938.125-1.058594.070313-1.5625 2.179688-38.398438 35.09375-43.910156 31.433594-5.261719 40.109376 2.394531 41.359376 3.738281zm-91.21875 55.917969h4.855468v45h-4.855468c-5.59375 0-10.144532-4.550782-10.144532-10.144532v-24.710937c0-5.59375 4.550782-10.144531 10.144532-10.144531zm137.855468 0h4.855469c5.59375 0 10.144531 4.550781 10.144531 10.144531v24.710937c0 5.59375-4.550781 10.144532-10.144531 10.144532h-4.855469zm-36.230468-66.785156c-5.46875-5.488282-19.65625-13.453126-54.242188-7.664063-5.460938.914063-10.527344 2.53125-15.183594 4.78125 4.601563-4.277344 8.421875-9.375 11.214844-15.070313 8.660156-4.175781 18.265625-6.375 27.9375-6.375 17.195312 0 33.359375 6.695313 45.519531 18.851563 5.636719 5.640625 10.085938 12.148437 13.25 19.210937-6.035156-6.703124-15.046875-12.324218-28.496093-13.734374zm-275.992188-112.339844c0-20.039063 16.316406-36.339844 36.375-36.339844h135.25c20.058594 0 36.375 16.300781 36.375 36.339844v71.867187c0 20.035157-16.316406 36.339844-36.375 36.339844h-52.265625c-2.835937 0-5.433594 1.601563-6.703125 4.136719-.359375.710937-8.667969 17.640625-.949219 34.226562 2.078125 4.46875 5.0625 8.414063 8.929688 11.835938-6.582031-1.375-13.277344-3.910156-18.910157-8.300782-9.480468-7.382812-14.550781-19.039062-15.070312-34.648437-.136719-4.042969-3.453125-7.25-7.496094-7.25h-42.78125c-20.058594 0-36.378906-16.304687-36.378906-36.339844zm125.355469 140.34375c-2.941407-6.222656-1.941407-12.949219-.769531-17.136719h4.414062v22.421875c-1.53125-1.628906-2.75-3.390625-3.644531-5.285156zm-83.855469 305.316406h-156c-12.40625 0-22.5-10.09375-22.5-22.5v-8.5h201v8.5c0 12.40625-10.09375 22.5-22.5 22.5zm22.5-46h-201v-329h17.332031c4.144531 0 7.5-3.355469 7.5-7.5s-3.355469-7.5-7.5-7.5h-17.332031v-8.5c0-12.40625 10.09375-22.5 22.5-22.5h99.5v31h-73c-4.144531 0-7.5 3.355469-7.5 7.5s3.355469 7.5 7.5 7.5h73v1.207031c0 28.308594 23.046875 51.339844 51.375 51.339844h27.625v135.523437l-38.441406 35.453126c-1.945313 1.792968-3.058594 4.335937-3.058594 6.976562 0 2.644531 1.113281 5.1875 3.058594 6.976562l38.441406 35.457032zm28.386719-81.085938c-5.238281 0-9.5 4.257813-9.5 9.492188v12.535156l-42.769531-39.441406 42.769531-39.441406v12.535156c0 5.234375 4.261719 9.492188 9.5 9.492188h60.113281v34.828124zm230.113281 127.085938h-156c-12.40625 0-22.5-10.09375-22.5-22.5v-8.5h152c4.144531 0 7.5-3.355469 7.5-7.5s-3.355469-7.5-7.5-7.5h-152v-66.085938h14c5.238281 0 9.5-4.261718 9.5-9.492187v-45.84375c0-5.230469-4.261719-9.492187-9.5-9.492187h-14v-4.996094c0-4.144532-3.355469-7.5-7.5-7.5s-7.5 3.355468-7.5 7.5v4.996094h-31.113281v-19.589844c0-3.769532-2.230469-7.179688-5.6875-8.691406-3.457031-1.515626-7.480469-.839844-10.257813 1.714843l-2.941406 2.714844v-98.984375c3.367188 6.277344 7.867188 11.636719 13.507812 16.03125 11.039063 8.597656 24.585938 11.96875 36.492188 12.75v56.933594c0 4.140625 3.355469 7.5 7.5 7.5s7.5-3.359375 7.5-7.5v-57.242188c2.507812-.273437 4.777344-.644531 6.714844-1.066406 3.960937-.855469 6.757812-4.273438 6.800781-8.308594.042969-4.074218-2.707031-7.585937-6.691406-8.539062-2.433594-.582032-4.707031-1.242188-6.824219-1.96875v-31.296875h27.625c.097656 0 .191406-.007813.289062-.007813-3.648437 9.230469-5.550781 19.105469-5.550781 29.175782v13.066406c-9.949219 3.355468-17.136719 12.765625-17.136719 23.832031v24.707031c0 13.867188 11.277344 25.148438 25.144532 25.148438h6.441406c.367188 0 .734375-.027344 1.09375-.058594 5.777344 19.664062 20.433594 35.546875 39.316406 43.007812v18.113282h-1.460937c-32.019531 0-58.0625 29.554687-58.0625 65.882812v11.089844c0 4.144531 3.355469 7.5 7.5 7.5h153.050781c4.144531 0 7.5-3.355469 7.5-7.5v-11.089844c0-36.324218-26.046875-65.882812-58.0625-65.882812h-1.46875v-18.113282c18.882812-7.460937 33.539062-23.34375 39.3125-43.007812.367188.03125.730469.058594 1.105469.058594h6.441406c13.863281 0 25.144531-11.28125 25.144531-25.148438v-24.707031c0-11.0625-7.1875-20.476563-17.132812-23.828125v-13.070312c0-21.195313-8.257813-41.121094-23.246094-56.113282-14.992188-14.992187-34.921875-23.246094-56.125-23.246094-7.777344 0-15.519531 1.160157-22.933594 3.390626.132813-1.496094.214844-3.007813.214844-4.535157v-1.207031h122v329h-17c-4.144531 0-7.5 3.355469-7.5 7.5s3.355469 7.5 7.5 7.5h17v8.5c0 12.40625-10.09375 22.5-22.5 22.5zm0 0"/><path d="m427.019531 242.695312c-10.046875-1.003906-17.714843 2.214844-18.558593 2.585938-3.789063 1.667969-5.515626 6.09375-3.847657 9.882812 1.238281 2.8125 3.984375 4.484376 6.871094 4.484376 1.007813 0 2.03125-.203126 3.015625-.636719.046875-.023438 4.890625-2 11.039062-1.390625 4.125.410156 7.796876-2.601563 8.203126-6.722656.410156-4.121094-2.601563-7.792969-6.722657-8.203126zm0 0"/><path d="m369.90625 257.621094c6.082031-.597656 10.90625 1.335937 11.09375 1.414062.96875.414063 1.972656.613282 2.964844.613282 2.882812 0 5.632812-1.675782 6.867187-4.484376 1.667969-3.792968-.054687-8.214843-3.847656-9.882812-.839844-.371094-8.503906-3.589844-18.558594-2.585938-4.121093.40625-7.128906 4.082032-6.722656 8.203126.410156 4.121093 4.078125 7.140624 8.203125 6.722656zm0 0"/><path d="m417.769531 278.875c-.074219.042969-7.605469 4.289062-19.597656 4.289062-12.066406 0-20.773437-4.363281-20.996094-4.476562-3.65625-1.914062-8.175781-.503906-10.101562 3.148438-1.933594 3.660156-.53125 8.199218 3.132812 10.132812.476563.253906 11.921875 6.191406 27.964844 6.191406 16.234375 0 26.773437-6.105468 27.21875-6.363281 3.566406-2.105469 4.753906-6.703125 2.648437-10.273437-2.105468-3.566407-6.703124-4.75-10.269531-2.648438zm0 0"/><path d="m49 204h68c4.144531 0 7.5-3.355469 7.5-7.5s-3.355469-7.5-7.5-7.5h-68c-4.144531 0-7.5 3.355469-7.5 7.5s3.355469 7.5 7.5 7.5zm0 0"/><path d="m155 219.050781h-106c-4.144531 0-7.5 3.359375-7.5 7.5 0 4.144531 3.355469 7.5 7.5 7.5h106c4.144531 0 7.5-3.355469 7.5-7.5 0-4.140625-3.355469-7.5-7.5-7.5zm0 0"/><path d="m155 249.105469h-106c-4.144531 0-7.5 3.355469-7.5 7.5 0 4.140625 3.355469 7.5 7.5 7.5h106c4.144531 0 7.5-3.359375 7.5-7.5 0-4.144531-3.355469-7.5-7.5-7.5zm0 0"/><path d="m155 299.875h-106c-4.144531 0-7.5 3.359375-7.5 7.5 0 4.144531 3.355469 7.5 7.5 7.5h106c4.144531 0 7.5-3.355469 7.5-7.5 0-4.140625-3.355469-7.5-7.5-7.5zm0 0"/><path d="m155 332.4375h-106c-4.144531 0-7.5 3.359375-7.5 7.5 0 4.144531 3.355469 7.5 7.5 7.5h106c4.144531 0 7.5-3.355469 7.5-7.5 0-4.140625-3.355469-7.5-7.5-7.5zm0 0"/><path d="m155 365h-106c-4.144531 0-7.5 3.355469-7.5 7.5s3.355469 7.5 7.5 7.5h106c4.144531 0 7.5-3.355469 7.5-7.5s-3.355469-7.5-7.5-7.5zm0 0"/><path d="m203 61.5h68c4.144531 0 7.5-3.355469 7.5-7.5s-3.355469-7.5-7.5-7.5h-68c-4.144531 0-7.5 3.355469-7.5 7.5s3.355469 7.5 7.5 7.5zm0 0"/><path d="m203 91.5h106c4.144531 0 7.5-3.355469 7.5-7.5s-3.355469-7.5-7.5-7.5h-106c-4.144531 0-7.5 3.355469-7.5 7.5s3.355469 7.5 7.5 7.5zm0 0"/><path d="m203 121.5h106c4.144531 0 7.5-3.355469 7.5-7.5s-3.355469-7.5-7.5-7.5h-106c-4.144531 0-7.5 3.355469-7.5 7.5s3.355469 7.5 7.5 7.5zm0 0"/></svg>